Coordinates
version=1
nRows=8
nColumns=42
inDegrees=yes

Units are S.I. units (second, meters, Newtons, ...)
If the header above contains a line with 'inDegrees', this indicates whether rotational values are in degrees (yes) or radians (no).

endheader
time	pelvis_tilt	pelvis_list	pelvis_rotation	pelvis_tx	pelvis_ty	pelvis_tz	hip_flexion_r	hip_adduction_r	hip_rotation_r	knee_angle_r	knee_adduction_r	knee_angle_r_beta	ankle_angle_r	subtalar_angle_r	mtp_angle_r	hip_flexion_l	hip_adduction_l	hip_rotation_l	knee_angle_l	knee_adduction_l	knee_angle_l_beta	ankle_angle_l	subtalar_angle_l	mtp_angle_l	lumbar_extension	lumbar_bending	lumbar_rotation	arm_flex_r	arm_add_r	arm_rot_r	elbow_flex_r	pro_sup_r	wrist_flex_r	wrist_dev_r	arm_flex_l	arm_add_l	arm_rot_l	elbow_flex_l	pro_sup_l	wrist_flex_l	wrist_dev_l
      0.90000000	     20.73074545	     -1.65935339	     -2.95079224	     -0.08045648	      0.98541932	     -0.10017112	    -27.59050828	      5.11434637	    -27.41207436	     15.41233696	     -6.54075865	      0.26899603	     23.21537061	     33.93121715	     -7.71489856	      9.01128724	     -1.77752650	    -16.91259984	     24.70814220	     -5.89689770	      0.43123843	      4.92173126	     19.05914155	     -7.71489856	    -44.17118190	      1.55064520	      9.63486833	      6.63603501	    -22.49533407	     -0.27207317	     72.47949364	     90.00000001	      0.00000000	      0.00000000	     -6.93413728	    -14.84951811	     -2.70172772	     52.45031438	     90.00000001	      0.00000000	      0.00000000
      0.91000000	     20.49104790	     -2.15933718	     -3.50649786	     -0.06699073	      0.98224630	     -0.09931040	    -28.05409645	      5.34016709	    -27.10144935	     15.81669108	     -6.75214977	      0.27605334	     23.87287272	     34.07086381	     -7.70246348	      9.81457059	     -2.49169330	    -19.99134719	     22.96201910	     -6.00130210	      0.40076284	      5.09287565	     22.98921185	     -7.70246348	    -43.98373853	      1.70264540	     10.20839573	      6.96965087	    -22.80608343	      0.11376168	     72.53090479	     90.00000001	      0.00000000	      0.00000000	     -7.49951895	    -14.54737444	     -2.91082377	     52.43778576	     90.00000001	      0.00000000	      0.00000000
      0.92000000	     20.27689562	     -2.48174695	     -4.09772977	     -0.05345698	      0.97923489	     -0.09862199	    -28.48657984	      5.28682062	    -26.96481550	     16.36552044	     -6.96994060	      0.28563222	     24.53263989	     34.26051702	     -7.69214317	     10.42771305	     -2.89887742	    -22.48755329	     21.36861783	     -5.94327848	      0.37295274	      5.13343347	     25.39941421	     -7.69214317	    -43.82532037	      1.68620837	     10.65307394	      7.33926095	    -23.05011874	      0.54255979	     72.48106736	     90.00000001	      0.00000000	      0.00000000	     -8.04497585	    -14.22481965	     -3.19388348	     52.40866635	     90.00000001	      0.00000000	      0.00000000
      0.93000000	     19.83829187	     -2.89308692	     -4.23076744	     -0.03999644	      0.97597326	     -0.09852274	    -28.76017020	      5.54857559	    -26.96732051	     16.73125983	     -7.07233716	      0.29201557	     24.72275383	     34.11399719	     -7.69045769	     11.30481494	     -3.25607031	    -23.32866008	     20.26178163	     -5.58833742	      0.35363480	      5.33602695	     25.27513537	     -7.69045769	    -43.46702720	      2.04742340	     10.89049339	      7.62248957	    -23.11051123	      0.58856085	     72.48074362	     90.00000001	      0.00000000	      0.00000000	     -8.47305886	    -14.01590347	     -3.15596866	     52.33443008	     90.00000001	      0.00000000	      0.00000000
      0.94000000	     19.69009340	     -2.99847744	     -5.28889677	     -0.02604225	      0.97323498	     -0.09737239	    -29.05636075	      4.87872482	    -27.00713235	     17.75947162	     -7.49214778	      0.30996125	     25.67253672	     35.30038946	     -7.68022836	     11.65707890	     -3.53468153	    -26.73532917	     19.35668457	     -5.76744976	      0.33783788	      5.74473779	     28.88565184	     -7.68022836	    -43.32989206	      1.54587799	     11.46345666	      8.01602471	    -23.37865524	      1.18960704	     72.15428575	     90.00000001	      0.00000000	      0.00000000	     -8.99351879	    -13.63292262	     -3.61141592	     52.30322131	     90.00000001	      0.00000000	      0.00000000
      0.95000000	     19.28238165	     -3.28216382	     -5.83402486	     -0.01229245	      0.97033761	     -0.09677949	    -29.20780628	      4.74209108	    -26.76404032	     18.46999190	     -7.78833202	      0.32236217	     25.91517727	     35.57518775	     -7.67838742	     12.26003513	     -3.77486116	    -27.76384232	     18.85927596	     -5.63949019	      0.32915646	      6.17879905	     28.83340552	     -7.67838742	    -42.97734220	      1.53035457	     11.89329668	      8.29209581	    -23.45625789	      1.34915680	     71.85858680	     90.00000001	      0.00000000	      0.00000000	     -9.31649707	    -13.39856184	     -3.60777318	     52.12566223	     90.00000001	      0.00000000	      0.00000000
      0.96000000	     18.83977170	     -3.49151228	     -6.23890720	      0.00172057	      0.96751507	     -0.09633565	    -29.34785605	      4.55185071	    -26.60284164	     19.16103121	     -7.99249035	      0.33442308	     26.01089128	     35.83894039	     -7.67739802	     12.87989014	     -3.86604413	    -28.49106797	     18.70961427	     -5.69315112	      0.32654437	      6.43149260	     28.73697349	     -7.67739802	    -42.57000372	      1.52540410	     12.12240314	      8.49142699	    -23.41687473	      1.44448036	     71.68283413	     90.00000001	      0.00000000	      0.00000000	     -9.65688371	    -13.22802955	     -3.61491345	     51.93888439	     90.00000001	      0.00000000	      0.00000000
      0.97000000	     18.53036355	     -3.48016440	     -7.07695124	      0.01612381	      0.96494485	     -0.09539985	    -29.44355255	      3.79194959	    -26.56458340	     20.24480895	     -8.34211233	      0.35333857	     26.44972579	     36.75842440	     -7.67066811	     13.36635189	     -3.91734465	    -30.25214431	     19.23620953	     -6.01861294	      0.33573519	      6.87581814	     29.50362170	     -7.67066811	    -42.21203675	      1.05158047	     12.48267155	      8.68837864	    -23.46341573	      1.75002882	     71.30946884	     90.00000001	      0.00000000	      0.00000000	     -9.94544076	    -12.99525428	     -3.85200196	     51.70730865	     90.00000001	      0.00000000	      0.00000000
